<svg xmlns="http://www.w3.org/2000/svg" viewBox="0 0 2342 2346" preserveAspectRatio="xMidYMid meet">
  <g transform="translate(0,2346) scale(0.1,-0.1)" fill="#5882cc" stroke="none">
    <path d="M2660 14395 l0 -715 2696 0 c1679 0 2694 -4 2692 -9 -1 -6 -403 -412 -892 -903 -4694 -4713 -4434 -4450 -4484 -4539 -59 -105 -95 -249 -89 -349 21 -315 286 -602 622 -671 87 -18 220 -19 3723 -19 l3632 0 0 715 0 715 -2689 2 -2689 3 191 195c105 107 815 823 1577 1590 762 767 1428 1438 1479 1490 51 52 407 410 790 795 1210 1216 1294 1302 1334 1375 93 170 109 368 45 545 -81 222 -288 400 -553 473 -55 15 -335 17 -3722 19 l-3663 3 0 -715z"/>
    <path d="M12662 15099 c-92 -12 -158 -33 -263 -85 -78 -39 -109 -62 -185 -138 -101 -102 -160 -201 -191 -322 -17 -65 -18 -250 -18 -3409 0 -3169 1 -3344 18 -3409 68 -266 313 -481 604 -531 80 -14 351 -15 2469 -12 2582 4 2438 1 2769 57 884 152 1685 595 2186 1210 397 488 622 1011 701 1633 19 148 19 1956 0 2107 -46 367 -136 673 -291 995 -316 655 -836 1170 -1521 1504 -484 237 -983 366 -1555 401 -194 12 -4630 11 -4723 -1z m4824 -1442 c208 -37 306 -60 434 -103 578 -195 982 -582 1170 -1119 17 -49 45 -157 63 -240 l32 -150 0 -895 0 -895 -28 -137c-54 -268 -131 -459 -269 -665-307 -460 -865 -765 -1503-823-68-6-812-10-1952-10l-1843 0 0 2530 0 2531 1903-4c1697-3 1912-5 1993-20z"/>
  </g>
</svg>